<svg id="visual" viewBox="0 0 960 540" width="960" height="540" xmlns="http://www.w3.org/2000/svg" xmlns:xlink="http://www.w3.org/1999/xlink" version="1.1"><rect x="0" y="0" width="960" height="540" fill="#028dd2"></rect><path d="M0 200L22.8 198.7C45.7 197.3 91.3 194.7 137 210C182.7 225.3 228.3 258.7 274 279.3C319.7 300 365.3 308 411.2 288.3C457 268.7 503 221.3 548.8 209.8C594.7 198.3 640.3 222.7 686 236C731.7 249.3 777.3 251.7 823 248.7C868.7 245.7 914.3 237.3 937.2 233.2L960 229L960 0L937.2 0C914.3 0 868.7 0 823 0C777.3 0 731.7 0 686 0C640.3 0 594.7 0 548.8 0C503 0 457 0 411.2 0C365.3 0 319.7 0 274 0C228.3 0 182.7 0 137 0C91.3 0 45.7 0 22.8 0L0 0Z" fill="#17003a" stroke-linecap="round" stroke-linejoin="miter"></path></svg>