<svg id="visual" viewBox="0 0 960 540" width="960" height="540" xmlns="http://www.w3.org/2000/svg" xmlns:xlink="http://www.w3.org/1999/xlink" version="1.1"><rect x="0" y="0" width="960" height="540" fill="#001220"></rect><path d="M0 212L22.8 212C45.7 212 91.3 212 137 205.8C182.7 199.7 228.3 187.3 274 184.5C319.7 181.7 365.3 188.3 411.2 183.5C457 178.7 503 162.3 548.8 166.8C594.7 171.3 640.3 196.7 686 206.8C731.7 217 777.3 212 823 211.2C868.7 210.3 914.3 213.7 937.2 215.3L960 217L960 0L937.2 0C914.3 0 868.7 0 823 0C777.3 0 731.7 0 686 0C640.3 0 594.7 0 548.8 0C503 0 457 0 411.2 0C365.3 0 319.7 0 274 0C228.3 0 182.7 0 137 0C91.3 0 45.7 0 22.8 0L0 0Z" fill="#1a2b33"></path><path d="M0 175L22.8 174.5C45.7 174 91.3 173 137 169.3C182.7 165.7 228.3 159.3 274 160.2C319.7 161 365.3 169 411.2 167.7C457 166.3 503 155.7 548.8 152.2C594.7 148.7 640.3 152.3 686 146.2C731.7 140 777.3 124 823 120C868.7 116 914.3 124 937.2 128L960 132L960 0L937.2 0C914.3 0 868.7 0 823 0C777.3 0 731.7 0 686 0C640.3 0 594.7 0 548.8 0C503 0 457 0 411.2 0C365.3 0 319.7 0 274 0C228.3 0 182.7 0 137 0C91.3 0 45.7 0 22.8 0L0 0Z" fill="#194356"></path><path d="M0 143L22.8 134.2C45.7 125.3 91.3 107.7 137 105.5C182.7 103.3 228.3 116.7 274 120.5C319.7 124.3 365.3 118.7 411.2 110C457 101.3 503 89.7 548.8 94.7C594.7 99.7 640.3 121.3 686 124.2C731.7 127 777.3 111 823 107C868.7 103 914.3 111 937.2 115L960 119L960 0L937.2 0C914.3 0 868.7 0 823 0C777.3 0 731.7 0 686 0C640.3 0 594.7 0 548.8 0C503 0 457 0 411.2 0C365.3 0 319.7 0 274 0C228.3 0 182.7 0 137 0C91.3 0 45.7 0 22.8 0L0 0Z" fill="#105b7d"></path><path d="M0 53L22.8 54.7C45.7 56.3 91.3 59.7 137 68.3C182.7 77 228.3 91 274 96.8C319.7 102.7 365.3 100.3 411.2 95.8C457 91.3 503 84.7 548.8 79.5C594.7 74.3 640.3 70.7 686 66C731.7 61.3 777.3 55.7 823 55.8C868.7 56 914.3 62 937.2 65L960 68L960 0L937.2 0C914.3 0 868.7 0 823 0C777.3 0 731.7 0 686 0C640.3 0 594.7 0 548.8 0C503 0 457 0 411.2 0C365.3 0 319.7 0 274 0C228.3 0 182.7 0 137 0C91.3 0 45.7 0 22.8 0L0 0Z" fill="#0074a6"></path><path d="M0 48L22.8 49C45.7 50 91.3 52 137 52.5C182.7 53 228.3 52 274 51.8C319.7 51.7 365.3 52.3 411.2 52.3C457 52.3 503 51.7 548.8 52.2C594.7 52.7 640.3 54.3 686 55.8C731.7 57.3 777.3 58.7 823 54.2C868.7 49.7 914.3 39.3 937.2 34.2L960 29L960 0L937.2 0C914.3 0 868.7 0 823 0C777.3 0 731.7 0 686 0C640.3 0 594.7 0 548.8 0C503 0 457 0 411.2 0C365.3 0 319.7 0 274 0C228.3 0 182.7 0 137 0C91.3 0 45.7 0 22.8 0L0 0Z" fill="#028dd2"></path></svg>