<svg id="visual" viewBox="0 0 960 540" width="960" height="540" xmlns="http://www.w3.org/2000/svg" xmlns:xlink="http://www.w3.org/1999/xlink" version="1.1"><rect x="0" y="0" width="960" height="540" fill="#001220"></rect><defs><linearGradient id="grad1_0" x1="43.8%" y1="100%" x2="100%" y2="0%"><stop offset="14.444444444444446%" stop-color="#001220" stop-opacity="1"></stop><stop offset="85.55555555555554%" stop-color="#001220" stop-opacity="1"></stop></linearGradient></defs><defs><linearGradient id="grad2_0" x1="0%" y1="100%" x2="56.3%" y2="0%"><stop offset="14.444444444444446%" stop-color="#001220" stop-opacity="1"></stop><stop offset="85.55555555555554%" stop-color="#001220" stop-opacity="1"></stop></linearGradient></defs><g transform="translate(960, 540)"><path d="M-270 0C-268.5 -37.2 -267.1 -74.4 -249.4 -103.3C-231.8 -132.3 -198.1 -153 -169 -169C-139.9 -185 -115.4 -196.4 -88 -212.5C-60.6 -228.6 -30.3 -249.3 0 -270L0 0Z" fill="#028dd2"></path></g><g transform="translate(0, 0)"><path d="M270 0C270.5 39.4 271 78.8 249.4 103.3C227.9 127.8 184.2 137.5 156.3 156.3C128.3 175.1 116 203.1 92.6 223.6C69.2 244.1 34.6 257 0 270L0 0Z" fill="#028dd2"></path></g></svg>